#!OML:ASF H:\Terrain\Patient Classification 1\PLAYGROUND\JustinFriday\JustinFriday.ASF
:FULLY-SPECIFIED
:DEGREES
3853
root 13.2132 27.2175 31.7062 117.486 5.33704 -178.698
lowerback 22.7965 5.85706 13.7378
upperback -6.30122 12.1663 -9.27555
thorax -14.8979 4.0779 -22.8236
lowerneck 24.3014 -10.7168 20.3883
upperneck 22.1755 -20.2671 9.4436
head 3.59837 -12.5611 0.57755
rclavicle 6.36111e-014 7.4743e-014
rhumerus 30.8973 -32.2447 -79.488
rradius 97.2411
rwrist -162.35
rhand -30.9973 26.9578
rfingers 7.12502
rthumb -4.2805 357.021
lclavicle 6.36111e-014 7.4743e-014
lhumerus 49.72 -42.6817 75.7499
lradius 81.8915
lwrist -25.1262
lhand 10.7986 5.90358
lfingers 7.12502
lthumb 35.8834 32.2487
rfemur -6.18749 -5.46592 19.325
rtibia 92.6677
rfoot 9.11658 -11.0127
rtoes 17.5048
lfemur -3.12631 6.03855 2.08257
ltibia 82.2828
lfoot -159.74 176.447
ltoes 6.27488
3854
root 13.2044 27.131 31.448 118.315 5.29027 -178.731
lowerback 22.3885 6.03613 13.8722
upperback -7.19867 12.5945 -9.77387
thorax -15.457 4.10321 -23.8146
lowerneck 24.2944 -11.0525 21.2331
upperneck 22.3815 -20.7826 9.47513
head 3.66994 -12.8517 0.489539
rclavicle -1.27222e-014 -1.17681e-013
rhumerus 30.8304 -33.3365 -78.8721
rradius 96.5488
rwrist -162.313
rhand -30.9132 26.9399
rfingers 7.12502
rthumb -4.19928 357.002
lclavicle -1.27222e-014 -1.17681e-013
lhumerus 50.8892 -43.4292 75.1217
lradius 81.0001
lwrist -24.8287
lhand 10.8523 5.91566
lfingers 7.12502
lthumb 35.9343 32.2483
rfemur -5.21456 -5.03756 19.3495
rtibia 91.1251
rfoot 9.63118 -11.3014
rtoes 15.5997
lfemur -2.22386 6.12071 1.96544
ltibia 81.2344
lfoot -159.275 176.957
ltoes 5.14559
3855
root 13.195 27.0536 31.1932 119.098 5.41928 -178.469
lowerback 22.0651 6.08407 14.3883
upperback -8.08196 12.9707 -10.167
thorax -16.0148 4.04481 -24.9208
lowerneck 24.3829 -11.1948 21.7354
upperneck 22.5917 -21.157 9.8035
head 3.77796 -13.1 0.527187
rclavicle 1.74931e-013 -8.11041e-014
rhumerus 30.7522 -34.2849 -78.2654
rradius 95.7372
rwrist -162.385
rhand -30.6291 27.0735
rfingers 7.12502
rthumb -3.92497 357.13
lclavicle 1.74931e-013 -8.11041e-014
lhumerus 52.1133 -44.052 74.4421
lradius 80.0708
lwrist -24.3549
lhand 11.0425 5.7061
lfingers 7.12502
lthumb 36.1144 31.9944
rfemur -4.00187 -4.77127 19.6549
rtibia 89.3605
rfoot 9.9535 -11.7587
rtoes 16.2168
lfemur -1.24098 5.98272 2.19514
ltibia 80.0668
lfoot -158.858 177.889
ltoes 6.32143
3856
root 13.1867 26.9827 30.946 119.672 5.18109 -178.384
lowerback 21.3832 6.0828 14.1009
upperback -8.49032 12.8323 -10.1407
thorax -16.2565 3.94333 -24.6418
lowerneck 24.7328 -11.138 21.1862
upperneck 22.5993 -20.9768 9.57986
head 3.72593 -13.0403 0.550522
rclavicle 9.22361e-014 -1.41535e-013
rhumerus 31.9001 -34.0384 -77.8525
rradius 94.5979
rwrist -162.644
rhand -30.2483 26.9926
rfingers 7.12502
rthumb -3.5572 357.043
lclavicle 9.22361e-014 -1.41535e-013
lhumerus 53.5917 -43.3158 73.9888
lradius 79.0069
lwrist -23.9342
lhand 11.0912 5.53108
lfingers 7.12502
lthumb 36.1606 31.808
rfemur -2.47385 -4.70668 19.2883
rtibia 87.4216
rfoot 10.3424 -12.0748
rtoes 16.9695
lfemur 0.0679406 5.65964 1.84165
ltibia 78.7065
lfoot -158.621 179.251
ltoes 8.16345
3857
root 13.1793 26.9021 30.7031 120.357 4.79075 -178.378
lowerback 20.641 6.07128 13.6546
upperback -8.8954 12.6516 -10.194
thorax -16.4943 3.85159 -24.359
lowerneck 25.0834 -11.1081 20.7323
upperneck 22.4494 -20.7652 9.37704
head 3.61813 -12.9601 0.580304
rclavicle -6.36111e-014 -1.79701e-013
rhumerus 33.2241 -33.88 -77.6415
rradius 93.4896
rwrist -162.82
rhand -30.3043 26.8808
rfingers 7.12502
rthumb -3.61129 356.932
lclavicle -6.36111e-014 -1.79701e-013
lhumerus 55.1021 -42.5683 73.4494
lradius 77.9666
lwrist -23.6037
lhand 11.1345 5.52457
lfingers 7.12502
lthumb 36.2016 31.7913
rfemur -1.12628 -4.58321 18.8366
rtibia 85.4479
rfoot 10.9593 -12.4602
rtoes 16.6081
lfemur 1.21973 5.40742 1.24943
ltibia 77.3112
lfoot -158.424 180.139
ltoes 9.17911
3858
root 13.1717 26.8039 30.4629 121.256 4.69187 -178.209
lowerback 19.7325 6.04234 13.5299
upperback -9.33443 12.5149 -10.1863
thorax -16.5925 3.76786 -24.1496
lowerneck 25.2636 -10.7855 20.0181
upperneck 22.2991 -20.4079 9.76245
head 3.60132 -12.8206 0.786887
rclavicle -6.36111e-015 -3.33958e-014
rhumerus 34.8188 -33.7184 -77.5267
rradius 92.2863
rwrist -162.991
rhand -30.4775 26.9146
rfingers 7.12502
rthumb -3.77861 356.968
lclavicle -6.36111e-015 -3.33958e-014
lhumerus 56.7384 -41.6777 72.7657
lradius 77.0617
lwrist -23.5543
lhand 11.7794 5.55855
lfingers 7.12502
lthumb 36.812 31.6714
rfemur -0.133238 -4.26065 19.0117
rtibia 83.4867
rfoot 11.4198 -13.2926
rtoes 17.6095
lfemur 2.05744 5.27012 1.09914
ltibia 76.0093
lfoot -158.269 180.669
ltoes 10.9342
3859
root 13.1652 26.6994 30.2274 122.077 4.60356 -178.096
lowerback 18.8966 6.02185 13.3362
upperback -9.68815 12.3694 -10.1435
thorax -16.6448 3.70685 -23.8404
lowerneck 25.3203 -10.585 19.4114
upperneck 22.1577 -20.1429 9.88809
head 3.56516 -12.6985 0.902667
rclavicle -1.97194e-013 4.29375e-014
rhumerus 36.62 -33.5302 -77.2401
rradius 90.8583
rwrist -163.336
rhand -30.3188 26.9965
rfingers 7.12502
rthumb -3.62534 357.048
lclavicle -1.97194e-013 4.29375e-014
lhumerus 58.7181 -40.6416 71.8423
lradius 76.0462
lwrist -23.538
lhand 12.5035 5.59231
lfingers 7.12502
lthumb 37.4968 31.5267
rfemur 0.938669 -3.87852 19.197
rtibia 81.4256
rfoot 11.8075 -14.1499
rtoes 19.081
lfemur 3.00189 5.15638 0.922733
ltibia 74.7211
lfoot -158.324 181.287
ltoes 12.2747
3860
root 13.1567 26.5994 29.9967 122.906 4.59183 -177.828
lowerback 17.8228 5.9393 13.4216
upperback -9.82421 12.1295 -10.0957
thorax -16.2604 3.66432 -23.5416
lowerneck 25.2278 -10.4026 18.8756
upperneck 22.0425 -19.876 9.83856
head 3.53051 -12.5482 0.945561
rclavicle 1.36764e-013 -7.31528e-014
rhumerus 38.9288 -33.3336 -77.2681
rradius 89.3816
rwrist -163.621
rhand -30.0779 27.0823
rfingers 7.12502
rthumb -3.39268 357.13
lclavicle 1.36764e-013 -7.31528e-014
lhumerus 61.324 -39.3896 70.4488
lradius 74.7696
lwrist -23.1007
lhand 12.267 5.65092
lfingers 7.12502
lthumb 37.2732 31.6443
rfemur 2.12798 -3.59957 19.5335
rtibia 79.2042
rfoot 12.1194 -15.0837
rtoes 20.3562
lfemur 3.90413 5.0532 0.935561
ltibia 73.4383
lfoot -158.371 181.346
ltoes 11.1651
